<svg width="14" height="14" viewBox="0 0 14 14" fill="none" xmlns="http://www.w3.org/2000/svg">
<path d="M7.83301 1.16634C7.83301 0.706104 7.45991 0.333008 6.99967 0.333008C6.53944 0.333008 6.16634 0.706104 6.16634 1.16634V6.16634H1.16634C0.706103 6.16634 0.333008 6.53944 0.333008 6.99967C0.333008 7.45991 0.706103 7.83301 1.16634 7.83301H6.16634V12.833C6.16634 13.2932 6.53944 13.6663 6.99967 13.6663C7.45991 13.6663 7.83301 13.2932 7.83301 12.833V7.83301H12.833C13.2932 7.83301 13.6663 7.45991 13.6663 6.99967C13.6663 6.53944 13.2932 6.16634 12.833 6.16634H7.83301V1.16634Z" fill="#4B4B4B"/>
</svg>
