<svg width="16" height="18" viewBox="0 0 16 18" fill="none" xmlns="http://www.w3.org/2000/svg">
<path d="M4.47106 15.8685C5.17196 16.7595 6.27305 17.3337 7.51123 17.3337C8.74942 17.3337 9.8505 16.7595 10.5514 15.8685C8.53326 16.142 6.48921 16.142 4.47106 15.8685Z" fill="#CBC9CF"/>
<path d="M13.1355 6.50032V7.08708C13.1355 7.79123 13.3365 8.47964 13.7131 9.06553L14.6359 10.5013C15.4789 11.8127 14.8354 13.5953 13.3693 14.01C9.53395 15.0948 5.48851 15.0948 1.6532 14.01C0.187103 13.5953 -0.456417 11.8127 0.38653 10.5013L1.3094 9.06553C1.68599 8.47964 1.88696 7.79123 1.88696 7.08708V6.50032C1.88696 3.27866 4.40503 0.666992 7.51123 0.666992C10.6174 0.666992 13.1355 3.27866 13.1355 6.50032Z" fill="#CBC9CF"/>
</svg>
