<svg width="166" height="28" viewBox="0 0 166 28" fill="none" xmlns="http://www.w3.org/2000/svg">
<g clip-path="url(#clip0_291_14120)">
<path d="M162.976 12.0228C164.234 12.0228 165.251 11.0028 165.251 9.74469C165.251 8.48662 164.234 7.4668 162.976 7.4668C161.72 7.4668 160.701 8.48662 160.701 9.74469C160.701 11.0028 161.72 12.0228 162.976 12.0228Z" fill="#0B3B2D"/>
<path d="M43.2033 20.681C42.1913 20.681 41.2585 20.5223 40.405 20.205C39.5637 19.8754 38.826 19.4116 38.192 18.8136C37.5702 18.2156 37.0826 17.5137 36.7289 16.7082C36.3875 15.9027 36.2168 15.0177 36.2168 14.0536C36.2168 13.0894 36.3875 12.2045 36.7289 11.399C37.0826 10.5934 37.5764 9.89162 38.2103 9.2936C38.8443 8.69552 39.5882 8.23788 40.4416 7.92048C41.2951 7.59095 42.234 7.42619 43.2582 7.42619C44.3921 7.42619 45.4102 7.61541 46.3125 7.99372C47.227 8.37209 47.9951 8.92133 48.6169 9.64142L46.7149 11.399C46.2515 10.9108 45.7455 10.5507 45.1968 10.3188C44.6482 10.0747 44.0508 9.95266 43.4045 9.95266C42.7827 9.95266 42.2157 10.0503 41.7036 10.2456C41.1915 10.4409 40.7464 10.7216 40.3685 11.0877C40.0027 11.4539 39.7162 11.8871 39.5088 12.3876C39.3138 12.8881 39.2162 13.4433 39.2162 14.0536C39.2162 14.6516 39.3138 15.2009 39.5088 15.7013C39.7162 16.2017 40.0027 16.6411 40.3685 17.0194C40.7464 17.3856 41.1854 17.6663 41.6853 17.8616C42.1974 18.0569 42.7582 18.1545 43.3679 18.1545C43.9532 18.1545 44.5202 18.063 45.0688 17.8799C45.6297 17.6846 46.1723 17.3611 46.6966 16.9096L48.3792 19.0516C47.6842 19.5764 46.8733 19.9791 45.9467 20.2599C45.0323 20.5406 44.1178 20.681 43.2033 20.681ZM45.6724 18.6671V13.8522H48.3792V19.0516L45.6724 18.6671ZM50.1987 20.4613V6.87695H53.0518V20.4613H50.1987ZM59.6502 20.6077C58.6016 20.6077 57.6689 20.3881 56.852 19.9487C56.0473 19.5093 55.4071 18.9113 54.9316 18.1545C54.4683 17.3856 54.2366 16.5129 54.2366 15.5365C54.2366 14.5479 54.4683 13.6753 54.9316 12.9185C55.4071 12.1496 56.0473 11.5516 56.852 11.1244C57.6689 10.685 58.6016 10.4653 59.6502 10.4653C60.6866 10.4653 61.6134 10.685 62.4303 11.1244C63.2473 11.5516 63.887 12.1434 64.3505 12.9002C64.8141 13.6569 65.0455 14.5357 65.0455 15.5365C65.0455 16.5129 64.8141 17.3856 64.3505 18.1545C63.887 18.9113 63.2473 19.5093 62.4303 19.9487C61.6134 20.3881 60.6866 20.6077 59.6502 20.6077ZM59.6502 18.2644C60.1258 18.2644 60.5526 18.1545 60.9305 17.9348C61.3085 17.7151 61.6072 17.4039 61.8267 17.0011C62.0462 16.5862 62.1559 16.0979 62.1559 15.5365C62.1559 14.9629 62.0462 14.4747 61.8267 14.0719C61.6072 13.6691 61.3085 13.3579 60.9305 13.1382C60.5526 12.9185 60.1258 12.8087 59.6502 12.8087C59.1747 12.8087 58.748 12.9185 58.37 13.1382C57.9921 13.3579 57.6872 13.6691 57.4555 14.0719C57.2361 14.4747 57.1263 14.9629 57.1263 15.5365C57.1263 16.0979 57.2361 16.5862 57.4555 17.0011C57.6872 17.4039 57.9921 17.7151 58.37 17.9348C58.748 18.1545 59.1747 18.2644 59.6502 18.2644ZM72.0374 20.6077C71.1713 20.6077 70.4278 20.4247 69.8062 20.0585C69.1839 19.6924 68.7086 19.137 68.3794 18.3925C68.0502 17.6357 67.8854 16.6837 67.8854 15.5365C67.8854 14.377 68.0558 13.425 68.3974 12.6805C68.7509 11.9361 69.2387 11.3807 69.8609 11.0145C70.4825 10.6484 71.208 10.4653 72.0374 10.4653C72.9639 10.4653 73.7927 10.6728 74.5245 11.0877C75.268 11.5027 75.8535 12.0885 76.2804 12.8453C76.719 13.6021 76.9387 14.4991 76.9387 15.5365C76.9387 16.5617 76.719 17.4527 76.2804 18.2094C75.8535 18.9662 75.268 19.5581 74.5245 19.9853C73.7927 20.4002 72.9639 20.6077 72.0374 20.6077ZM66.2209 20.4613V6.87695H69.0744V12.6073L68.8915 15.5182L68.9462 18.4474V20.4613H66.2209ZM71.5434 18.2644C72.0188 18.2644 72.4394 18.1545 72.8053 17.9348C73.1836 17.7151 73.4822 17.4039 73.7013 17.0011C73.9334 16.5862 74.0491 16.0979 74.0491 15.5365C74.0491 14.9629 73.9334 14.4747 73.7013 14.0719C73.4822 13.6691 73.1836 13.3579 72.8053 13.1382C72.4394 12.9185 72.0188 12.8087 71.5434 12.8087C71.068 12.8087 70.6412 12.9185 70.2629 13.1382C69.8852 13.3579 69.5865 13.6691 69.3669 14.0719C69.1472 14.4747 69.0377 14.9629 69.0377 15.5365C69.0377 16.0979 69.1472 16.5862 69.3669 17.0011C69.5865 17.4039 69.8852 17.7151 70.2629 17.9348C70.6412 18.1545 71.068 18.2644 71.5434 18.2644ZM83.9916 20.4613V18.539L83.8086 18.1179V14.6761C83.8086 14.0657 83.6201 13.5897 83.2418 13.2481C82.8759 12.9063 82.3091 12.7354 81.5413 12.7354C81.0167 12.7354 80.4984 12.8209 79.9863 12.9917C79.4867 13.1504 79.0598 13.3701 78.7064 13.6508L77.6822 11.6553C78.2186 11.2769 78.8645 10.9841 79.6205 10.7765C80.3765 10.569 81.1449 10.4653 81.9252 10.4653C83.4247 10.4653 84.5895 10.8193 85.4183 11.5271C86.2478 12.235 86.6622 13.3396 86.6622 14.8408V20.4613H83.9916ZM80.9925 20.6077C80.224 20.6077 79.5657 20.4796 79.0169 20.2233C78.4687 19.9548 78.0481 19.5947 77.755 19.1431C77.4626 18.6916 77.3164 18.185 77.3164 17.6236C77.3164 17.0377 77.4564 16.5251 77.737 16.0857C78.0294 15.6464 78.4868 15.3046 79.1084 15.0605C79.7306 14.8042 80.5414 14.6761 81.5413 14.6761H84.1565V16.3421H81.8518C81.181 16.3421 80.7181 16.4519 80.4617 16.6716C80.2178 16.8913 80.0965 17.1659 80.0965 17.4954C80.0965 17.8616 80.2365 18.1545 80.5171 18.3742C80.8095 18.5817 81.2059 18.6854 81.7055 18.6854C82.1809 18.6854 82.6078 18.5756 82.9861 18.3559C83.3638 18.1241 83.6382 17.7884 83.8086 17.349L84.2479 18.6671C84.0407 19.3017 83.6624 19.7839 83.1142 20.1134C82.5654 20.443 81.858 20.6077 80.9925 20.6077ZM88.5127 20.4613V6.87695H91.3655V20.4613H88.5127ZM93.4836 20.4613V7.6459H95.9339L103.488 16.873H102.299V7.6459H105.225V20.4613H102.793L95.2208 11.2342H96.4099V20.4613H93.4836ZM112.003 20.6077C110.954 20.6077 110.022 20.3881 109.205 19.9487C108.401 19.5093 107.76 18.9113 107.285 18.1545C106.821 17.3856 106.59 16.5129 106.59 15.5365C106.59 14.5479 106.821 13.6753 107.285 12.9185C107.76 12.1496 108.401 11.5516 109.205 11.1244C110.022 10.685 110.954 10.4653 112.003 10.4653C113.039 10.4653 113.967 10.685 114.783 11.1244C115.6 11.5516 116.24 12.1434 116.704 12.9002C117.167 13.6569 117.399 14.5357 117.399 15.5365C117.399 16.5129 117.167 17.3856 116.704 18.1545C116.24 18.9113 115.6 19.5093 114.783 19.9487C113.967 20.3881 113.039 20.6077 112.003 20.6077ZM112.003 18.2644C112.479 18.2644 112.906 18.1545 113.284 17.9348C113.661 17.7151 113.96 17.4039 114.18 17.0011C114.4 16.5862 114.509 16.0979 114.509 15.5365C114.509 14.9629 114.4 14.4747 114.18 14.0719C113.96 13.6691 113.661 13.3579 113.284 13.1382C112.906 12.9185 112.479 12.8087 112.003 12.8087C111.528 12.8087 111.101 12.9185 110.723 13.1382C110.346 13.3579 110.04 13.6691 109.809 14.0719C109.589 14.4747 109.48 14.9629 109.48 15.5365C109.48 16.0979 109.589 16.5862 109.809 17.0011C110.04 17.4039 110.346 17.7151 110.723 17.9348C111.101 18.1545 111.528 18.2644 112.003 18.2644ZM131.176 10.4653C131.956 10.4653 132.644 10.624 133.243 10.9413C133.851 11.2464 134.327 11.7224 134.669 12.3693C135.022 13.0039 135.2 13.8217 135.2 14.8225V20.4613H132.346V15.2619C132.346 14.4685 132.182 13.8827 131.853 13.5044C131.524 13.1261 131.06 12.9368 130.463 12.9368C130.047 12.9368 129.676 13.0345 129.347 13.2297C129.018 13.4128 128.762 13.6936 128.579 14.0719C128.396 14.4502 128.304 14.9324 128.304 15.5182V20.4613H125.451V15.2619C125.451 14.4685 125.287 13.8827 124.957 13.5044C124.64 13.1261 124.183 12.9368 123.586 12.9368C123.17 12.9368 122.8 13.0345 122.47 13.2297C122.141 13.4128 121.885 13.6936 121.702 14.0719C121.519 14.4502 121.428 14.9324 121.428 15.5182V20.4613H118.575V10.6117H121.3V13.303L120.788 12.5157C121.129 11.8445 121.611 11.3379 122.233 10.9962C122.866 10.6423 123.586 10.4653 124.391 10.4653C125.292 10.4653 126.079 10.6971 126.75 11.161C127.432 11.6125 127.884 12.3082 128.103 13.2481L127.097 12.9734C127.426 12.2045 127.951 11.5942 128.67 11.1427C129.402 10.6911 130.237 10.4653 131.176 10.4653ZM143.061 20.4613V18.539L142.878 18.1179V14.6761C142.878 14.0657 142.689 13.5897 142.311 13.2481C141.945 12.9063 141.379 12.7354 140.61 12.7354C140.085 12.7354 139.568 12.8209 139.056 12.9917C138.555 13.1504 138.128 13.3701 137.775 13.6508L136.751 11.6553C137.287 11.2769 137.933 10.9841 138.69 10.7765C139.445 10.569 140.213 10.4653 140.994 10.4653C142.494 10.4653 143.658 10.8193 144.487 11.5271C145.316 12.235 145.731 13.3396 145.731 14.8408V20.4613H143.061ZM140.061 20.6077C139.293 20.6077 138.635 20.4796 138.086 20.2233C137.538 19.9548 137.117 19.5947 136.824 19.1431C136.531 18.6916 136.385 18.185 136.385 17.6236C136.385 17.0377 136.525 16.5251 136.806 16.0857C137.098 15.6464 137.556 15.3046 138.178 15.0605C138.799 14.8042 139.61 14.6761 140.61 14.6761H143.225V16.3421H140.921C140.25 16.3421 139.787 16.4519 139.531 16.6716C139.287 16.8913 139.165 17.1659 139.165 17.4954C139.165 17.8616 139.305 18.1545 139.586 18.3742C139.878 18.5817 140.275 18.6854 140.775 18.6854C141.25 18.6854 141.676 18.5756 142.055 18.3559C142.433 18.1241 142.707 17.7884 142.878 17.349L143.317 18.6671C143.11 19.3017 142.732 19.7839 142.183 20.1134C141.634 20.443 140.926 20.6077 140.061 20.6077ZM151.877 20.6077C150.951 20.6077 150.116 20.4002 149.372 19.9853C148.629 19.5581 148.037 18.9662 147.598 18.2094C147.171 17.4527 146.957 16.5617 146.957 15.5365C146.957 14.4991 147.171 13.6021 147.598 12.8453C148.037 12.0885 148.629 11.5027 149.372 11.0877C150.116 10.6728 150.951 10.4653 151.877 10.4653C152.707 10.4653 153.432 10.6484 154.054 11.0145C154.675 11.3807 155.158 11.9361 155.499 12.6805C155.841 13.425 156.011 14.377 156.011 15.5365C156.011 16.6837 155.846 17.6357 155.517 18.3925C155.187 19.137 154.712 19.6924 154.091 20.0585C153.481 20.4247 152.743 20.6077 151.877 20.6077ZM152.371 18.2644C152.835 18.2644 153.255 18.1545 153.633 17.9348C154.012 17.7151 154.31 17.4039 154.529 17.0011C154.762 16.5862 154.877 16.0979 154.877 15.5365C154.877 14.9629 154.762 14.4747 154.529 14.0719C154.31 13.6691 154.012 13.3579 153.633 13.1382C153.255 12.9185 152.835 12.8087 152.371 12.8087C151.896 12.8087 151.47 12.9185 151.091 13.1382C150.713 13.3579 150.409 13.6691 150.177 14.0719C149.957 14.4747 149.848 14.9629 149.848 15.5365C149.848 16.0979 149.957 16.5862 150.177 17.0011C150.409 17.4039 150.713 17.7151 151.091 17.9348C151.47 18.1545 151.896 18.2644 152.371 18.2644ZM154.95 20.4613V18.4474L155.005 15.5182L154.822 12.6073V6.87695H157.675V20.4613H154.95Z" fill="#0B3B2D"/>
<path fill-rule="evenodd" clip-rule="evenodd" d="M13.9859 0C21.7102 0 27.9719 6.26802 27.9719 14C27.9719 21.732 21.7102 28 13.9859 28C6.26173 28 0 21.732 0 14C0 6.26802 6.26173 0 13.9859 0ZM13.4804 1.04761C11.8849 1.27238 10.3657 2.55575 9.18624 4.70218C8.84414 5.32478 8.53546 6.01262 8.26647 6.75534C9.87012 6.35189 11.6317 6.11409 13.4804 6.07731V1.04761ZM7.08444 7.09159C7.41894 6.04071 7.82812 5.07388 8.30038 4.21445C8.88502 3.15041 9.57886 2.23157 10.3606 1.52584C6.10962 2.76166 2.75889 6.11575 1.52431 10.371C2.22932 9.58844 3.14726 8.89392 4.21024 8.30872C5.06879 7.83602 6.03463 7.42635 7.08444 7.09159ZM6.7485 8.27475C6.34555 9.88002 6.10796 11.6434 6.07121 13.4939H1.04656C1.27111 11.8968 2.55319 10.376 4.69746 9.19551C5.31944 8.85304 6.00659 8.54404 6.7485 8.27475ZM7.08251 13.4939C7.12426 11.4744 7.41465 9.57836 7.89519 7.90316C9.56878 7.42212 11.463 7.13135 13.4804 7.08954V9.27559C12.7277 11.2043 11.1927 12.7409 9.26576 13.4939H7.08251ZM6.07121 14.5061H1.04656C1.27111 16.1032 2.55319 17.6239 4.69746 18.8045C5.31944 19.147 6.00659 19.4559 6.7485 19.7253C6.34555 18.12 6.10796 16.3566 6.07121 14.5061ZM7.89519 20.0969C7.41465 18.4216 7.12426 16.5256 7.08251 14.5061H9.26576C11.1927 15.2591 12.7279 16.7957 13.4804 18.7245V20.9105C11.463 20.8687 9.56878 20.5778 7.89519 20.0969ZM7.08444 20.9085C6.03463 20.5737 5.06879 20.164 4.21024 19.6913C3.14726 19.1061 2.22932 18.4115 1.52431 17.629C2.75889 21.8842 6.10962 25.2383 10.3606 26.4741C9.57886 25.7684 8.88502 24.8496 8.30038 23.7854C7.82812 22.9261 7.41894 21.9593 7.08444 20.9085ZM13.4804 26.9524C11.8849 26.7276 10.3657 25.4442 9.18624 23.2978C8.84414 22.6753 8.53546 21.9873 8.26647 21.2447C9.87012 21.6481 11.6317 21.8859 13.4804 21.9227V26.9524ZM17.6113 26.4741C18.393 25.7684 19.087 24.8496 19.6716 23.7854C20.1438 22.9261 20.553 21.9593 20.8875 20.9085C21.9373 20.5737 22.9031 20.164 23.7617 19.6913C24.8246 19.1061 25.7426 18.4115 26.4476 17.629C25.213 21.8842 21.8623 25.2383 17.6113 26.4741ZM19.7055 21.2447C19.4364 21.9873 19.1277 22.6753 18.7856 23.2978C17.6064 25.4442 16.0871 26.7276 14.4915 26.9524V21.9227C16.3402 21.8859 18.1018 21.6481 19.7055 21.2447ZM21.2234 19.7253C21.9653 19.4559 22.6525 19.147 23.2745 18.8045C25.4187 17.6239 26.7008 16.1032 26.9253 14.5061H21.9007C21.8639 16.3566 21.6264 18.12 21.2234 19.7253ZM20.8895 14.5061C20.8478 16.5256 20.5572 18.4216 20.0767 20.0969C18.4032 20.5778 16.509 20.8687 14.4915 20.9105V18.7261C15.2438 16.7966 16.7793 15.2594 18.7067 14.5061H20.8895ZM21.9007 13.4939H26.9253C26.7008 11.8968 25.4187 10.376 23.2745 9.19551C22.6525 8.85304 21.9653 8.54404 21.2234 8.27475C21.6264 9.88002 21.8639 11.6434 21.9007 13.4939ZM20.0767 7.90316C20.5572 9.57836 20.8478 11.4744 20.8895 13.4939H18.7067C16.7793 12.7406 15.2438 11.2034 14.4915 9.27397V7.08954C16.509 7.13135 18.4032 7.42212 20.0767 7.90316ZM20.8875 7.09159C21.9373 7.42635 22.9031 7.83602 23.7617 8.30872C24.8246 8.89392 25.7426 9.58844 26.4476 10.371C25.213 6.11575 21.8623 2.76166 17.6113 1.52584C18.393 2.23157 19.087 3.15041 19.6716 4.21445C20.1438 5.07388 20.553 6.04071 20.8875 7.09159ZM14.4915 1.04761C16.0871 1.27238 17.6064 2.55575 18.7856 4.70218C19.1277 5.32479 19.4364 6.01262 19.7055 6.75534C18.1018 6.35189 16.3402 6.11409 14.4915 6.07731V1.04761Z" fill="#0B3B2D"/>
</g>
<defs>
<clipPath id="clip0_291_14120">
<rect width="165.511" height="28" fill="white"/>
</clipPath>
</defs>
</svg>
