<svg width="19" height="19" viewBox="0 0 19 19" fill="none" xmlns="http://www.w3.org/2000/svg">
<g id="Star">
<path id="Vector" d="M14.6215 17.8126C14.4965 17.8131 14.3746 17.7741 14.273 17.7013L9.50039 14.2412L4.72776 17.7013C4.62579 17.7752 4.50295 17.8148 4.37699 17.8144C4.25103 17.8139 4.12848 17.7734 4.02706 17.6987C3.92563 17.624 3.85059 17.519 3.81278 17.3988C3.77497 17.2787 3.77635 17.1496 3.81672 17.0303L5.67813 11.517L0.853909 8.20867C0.749413 8.13709 0.670545 8.03397 0.62883 7.91438C0.587114 7.79478 0.584736 7.66498 0.622043 7.54394C0.659351 7.4229 0.734389 7.31696 0.836193 7.2416C0.937997 7.16624 1.06123 7.12541 1.18789 7.12508H7.13949L8.93559 1.59764C8.97428 1.4783 9.04978 1.37429 9.15125 1.30052C9.25271 1.22675 9.37494 1.18701 9.50039 1.18701C9.62584 1.18701 9.74807 1.22675 9.84954 1.30052C9.95101 1.37429 10.0265 1.4783 10.0652 1.59764L11.8613 7.12693H17.8129C17.9397 7.12687 18.0632 7.16742 18.1653 7.24263C18.2674 7.31784 18.3428 7.42378 18.3803 7.54491C18.4179 7.66605 18.4156 7.79602 18.374 7.91579C18.3323 8.03557 18.2534 8.13886 18.1487 8.21053L13.3227 11.517L15.183 17.0288C15.2131 17.1181 15.2216 17.2132 15.2077 17.3064C15.1938 17.3995 15.158 17.488 15.1031 17.5646C15.0482 17.6412 14.976 17.7036 14.8922 17.7467C14.8085 17.7898 14.7157 17.8124 14.6215 17.8126Z" fill="#FFC23D"/>
</g>
</svg>
